<svg xmlns="http://www.w3.org/2000/svg" version="1.1" xmlns:xlink="http://www.w3.org/1999/xlink" xmlns:svgjs="http://svgjs.dev/svgjs" width="32" height="32"><svg width="32" height="32" viewBox="0 0 32 32" version="1.1" id="SvgjsSvg1029" xml:space="preserve" inkscape:version="1.4 (86a8ad7, 2024-10-11)" sodipodi:docname="favicon.svg" xmlns:inkscape="http://www.inkscape.org/namespaces/inkscape" xmlns:sodipodi="http://sodipodi.sourceforge.net/DTD/sodipodi-0.dtd" xmlns="http://www.w3.org/2000/svg" xmlns:svg="http://www.w3.org/2000/svg"><sodipodi:namedview id="SvgjsSodipodi:namedview1028" pagecolor="#ffffff" bordercolor="#000000" borderopacity="0.25" inkscape:showpageshadow="2" inkscape:pageopacity="0.0" inkscape:pagecheckerboard="0" inkscape:deskcolor="#d1d1d1" inkscape:document-units="mm" inkscape:zoom="15.340011" inkscape:cx="14.406769" inkscape:cy="22.5228" inkscape:window-width="1920" inkscape:window-height="1000" inkscape:window-x="1909" inkscape:window-y="-11" inkscape:window-maximized="1" inkscape:current-layer="layer1"></sodipodi:namedview><defs id="SvgjsDefs1027"></defs><g inkscape:label="Calque 1" inkscape:groupmode="layer" id="SvgjsG1026" transform="translate(-69.902176,-90.437817)"><g id="SvgjsG1025" transform="matrix(0.39876451,0,0,0.39876451,42.940248,54.959958)"><path style="fill:#66749c;stroke-width:1.02326" d="m 83.799178,159.83253 c -4.430876,-1.15637 -7.74287,-4.54617 -8.794599,-9.00119 -0.612065,-2.59263 -0.612065,-44.97386 0,-47.56651 1.074059,-4.549606 4.532404,-8.002631 9.089018,-9.075038 2.596293,-0.611043 44.772523,-0.611043 47.368813,0 4.55661,1.072407 8.01496,4.525432 9.08903,9.075038 0.61206,2.59265 0.61206,44.97388 0,47.56651 -1.07407,4.54961 -4.53242,8.00264 -9.08903,9.07506 -1.47835,0.34793 -5.03319,0.40723 -23.81988,0.39736 -19.882622,-0.011 -22.25762,-0.0574 -23.843352,-0.47123 z" id="SvgjsPath1024"></path><path style="fill:#4a5670;stroke-width:1" d="m 84.995921,167.28397 c -6.232354,-0.9305 -11.33886,-5.49291 -13.040185,-11.65077 -0.429759,-1.55548 -0.466063,-3.62418 -0.466063,-26.55771 0,-22.93353 0.0363,-25.00224 0.466063,-26.55773 1.515591,-5.485595 5.855199,-9.825205 11.340796,-11.340795 1.55035,-0.42834 3.528663,-0.46606 24.441058,-0.46606 20.9124,0 22.89072,0.03769 24.44106,0.46606 5.4856,1.51559 9.8252,5.8552 11.34079,11.340795 0.42976,1.55549 0.46607,3.6242 0.46607,26.55773 0,22.93353 -0.0363,25.00223 -0.46607,26.55771 -1.49688,5.41789 -5.74675,9.71622 -11.19998,11.32772 -1.4264,0.42151 -3.4955,0.46613 -23.65583,0.51006 -12.150991,0.0265 -22.801458,-0.0577 -23.667709,-0.18701 z m 46.653419,-8.14758 c 2.20611,-0.68662 3.64018,-1.58159 5.23306,-3.26582 1.50802,-1.59452 2.2073,-2.81278 2.84059,-4.94883 0.37702,-1.27167 0.42606,-4.01481 0.42606,-23.83063 0,-19.81581 -0.049,-22.55896 -0.42606,-23.83062 -0.63329,-2.13605 -1.33257,-3.35432 -2.84059,-4.948844 -1.59288,-1.68422 -3.02695,-2.579191 -5.23306,-3.26581 -1.51532,-0.471621 -2.80213,-0.498481 -23.8873,-0.498481 -19.716673,0 -22.45136,0.0491 -23.722782,0.42607 -2.136049,0.633281 -3.354319,1.332561 -4.948838,2.84059 -1.684226,1.592874 -2.579196,3.026955 -3.265815,5.233055 -0.471719,1.51564 -0.498473,2.80485 -0.498473,24.01959 0,19.83829 0.04904,22.58336 0.426061,23.85508 0.633288,2.13605 1.332565,3.35431 2.840594,4.94883 1.56548,1.65527 3.015995,2.57222 5.146485,3.25343 1.409396,0.45064 2.983591,0.48334 23.908598,0.49663 21.21968,0.0134 22.48425,-0.012 24.00147,-0.48424 z" id="SvgjsPath1023"></path></g><text xml:space="preserve" style="font-size:1.26607px;text-align:start;writing-mode:lr-tb;direction:ltr;text-anchor:start;fill:#000000;stroke-width:0.105506" x="83.475151" y="101.67419" id="SvgjsText1022" svgjs:data="{&quot;leading&quot;:&quot;1.3&quot;}"><tspan sodipodi:role="line" id="SvgjsTspan1021" style="stroke-width:0.105506" x="83.475151" y="101.67419"></tspan></text><g id="SvgjsG1020" transform="matrix(0.16128036,0,0,0.17646248,76.765661,95.047332)"><path style="fill:#f8f8f6;stroke-width:1" d="m 96.625091,102.73748 c -2.998211,-0.64761 -5.139992,-1.39045 -12.11577,-4.202139 -8.546825,-3.444929 -10.856872,-4.110974 -14.929909,-4.304676 -3.978815,-0.189217 -5.696969,0.147287 -9.170097,1.795989 -2.81984,1.338586 -3.66066,1.549562 -3.876924,0.972797 -0.179958,-0.47994 -0.284943,-81.686075 -0.105226,-81.395244 0.08304,0.134424 0.31675,-0.06524 0.5193,-0.443719 0.480709,-0.898213 3.331454,-2.578188 5.821445,-3.430638 5.776347,-1.9775397 11.594223,-0.852299 24.72906,4.78287 5.135415,2.20322 8.621433,3.089201 12.69999,3.227741 4.11478,0.139769 6.0805,-0.239046 9.25801,-1.784107 2.3309,-1.133388 3.21054,-1.134229 3.69129,-0.0791 0.3989,0.875466 0.262,77.438417 -0.13646,79.188343 -0.43989,1.931864 -1.30452,2.970973 -3.37926,4.061223 -3.65782,1.92213 -8.68244,2.5444 -13.005436,1.61066 z" id="SvgjsPath1019" sodipodi:nodetypes="ssssssssssssssss"></path><path style="fill:#dbe1e1;stroke-width:1" d="M 11.041839,103.13194 C 8.6154668,102.76193 6.8991194,102.13134 3.2271784,100.26083 3.0088972,100.14963 2.5624128,99.665265 2.2349909,99.184457 L 1.6396785,98.310259 V 59.477686 c 0,-30.818494 -0.00429,-38.784596 -0.00288,-38.93192 0.00177,-0.186824 -0.00211,-0.686079 0.00288,-1.122924 0.027163,-2.370832 1.0549034,-2.80444 3.6455657,-1.49803 2.8621392,1.443309 4.8186678,1.882456 8.3869188,1.882456 4.063133,0 6.747648,-0.635823 12.402394,-2.937481 2.204305,-0.897222 5.602414,-2.281381 7.55135,-3.07591 8.542753,-3.482646 14.233704,-3.8249647 19.599587,-1.178941 3.430833,1.691812 3.030497,-3.7811768 3.182931,43.513835 l 0.132292,41.045299 0.661459,0.183973 c 0.369758,0.102837 0.467451,0.195604 0.221531,0.210346 -0.241959,0.01451 -1.056894,-0.379947 -1.810965,-0.87656 -0.754071,-0.496616 -2.401573,-1.240757 -3.661115,-1.653647 -2.068613,-0.678113 -2.622702,-0.747991 -5.729659,-0.722594 -4.528974,0.03702 -6.520464,0.583342 -16.258365,4.460115 -10.067446,4.007967 -14.505439,5.029697 -18.921764,4.356237 z m 89.088981,0.0909 c 0.5457,-0.0571 1.43867,-0.0571 1.98437,0 0.54571,0.0571 0.0992,0.10378 -0.99218,0.10378 -1.09141,0 -1.537894,-0.0467 -0.99219,-0.10378 z m -2.497006,-0.25259 c 0.190997,-0.0764 0.419199,-0.067 0.507118,0.0209 0.08792,0.0879 -0.06836,0.15045 -0.347266,0.13896 -0.308224,-0.0127 -0.370919,-0.0754 -0.159852,-0.15985 z m 6.614586,0 c 0.19099,-0.0764 0.4192,-0.067 0.50712,0.0209 0.0879,0.0879 -0.0684,0.15045 -0.34727,0.13896 -0.30823,-0.0127 -0.37092,-0.0754 -0.15985,-0.15985 z m 8.82263,-6.169259 c 0,-0.363802 0.0601,-0.51263 0.13345,-0.330729 0.0734,0.181901 0.0734,0.479557 0,0.661458 -0.0734,0.181901 -0.13345,0.03307 -0.13345,-0.330729 z M 64.296317,94.503606 c 0.190995,-0.07643 0.419198,-0.06703 0.507117,0.0209 0.08793,0.08792 -0.06834,0.150453 -0.347265,0.138963 -0.308225,-0.0127 -0.370921,-0.07539 -0.159852,-0.159852 z m 8.202082,0 c 0.190996,-0.07643 0.419198,-0.06703 0.507118,0.0209 0.08792,0.08792 -0.06834,0.150453 -0.347266,0.138963 -0.308224,-0.0127 -0.370919,-0.07539 -0.159852,-0.159852 z m -6.895703,-0.259071 c 0.181901,-0.0734 0.479557,-0.0734 0.661458,0 0.181901,0.0734 0.03306,0.133452 -0.330729,0.133452 -0.363802,0 -0.51263,-0.06005 -0.330729,-0.133452 z m 5.027083,0 c 0.181901,-0.0734 0.479557,-0.0734 0.661458,0 0.181901,0.0734 0.03306,0.133452 -0.330729,0.133452 -0.363802,0 -0.51263,-0.06005 -0.330729,-0.133452 z" id="SvgjsPath1018" sodipodi:nodetypes="ssscssssssssscsssssssssssssssssssssscssssssssssssssssssss"></path><path style="fill:#a8b7c1;stroke-width:1" d="m 0.73825692,107.52592 c -1.96251192,-0.81046 -3.56678762,-1.81238 -4.66279462,-3.42798 -1.7520496,-2.58267 -1.656113,-0.26709 -1.656113,-39.972967 0,-39.754539 -0.098725,-37.399222 1.6763657,-39.993597 0.9246068,-1.351354 3.59079438,-3.12593 4.81635935,-3.415695 l 0.72760415,-0.17203 v 38.883305 38.883303 l 0.5953124,0.874198 c 0.66062,0.970103 0.5975101,0.928363 3.3734374,2.230743 2.9308529,1.37506 4.9788847,1.82899 8.2029827,1.81813 4.025593,-0.0136 7.167013,-0.88052 16.152192,-4.457627 9.737901,-3.876773 11.729391,-4.423093 16.258365,-4.460115 3.106957,-0.0254 3.661046,0.04449 5.729659,0.722594 1.259542,0.41289 2.907044,1.157031 3.661115,1.653647 0.754071,0.496613 1.482756,0.902934 1.619301,0.902934 0.136544,0 1.290796,-0.530527 2.565003,-1.178949 6.812423,-3.466724 12.028949,-3.008336 24.476939,2.150845 12.882656,5.339331 18.098915,6.010241 24.389645,3.136951 2.29816,-1.04969 3.50426,-2.052532 4.13288,-3.436443 0.46394,-1.021373 0.48597,-2.779494 0.49152,-39.242217 l 0.006,-38.172938 0.72761,0.38114 c 1.53662,0.80493 2.96751,2.327255 3.82535,4.069785 l 0.87099,1.769292 v 37.179496 37.179495 l -0.62027,1.24787 c -0.93215,1.87537 -2.45682,3.44874 -4.32189,4.45995 l -1.67242,0.90676 -23.794564,0.0717 c -23.587023,0.071 -23.809179,0.0668 -25.46973,-0.48579 -2.19281,-0.72971 -4.283564,-2.60594 -5.327368,-4.78074 l -0.757009,-1.57726 -0.461243,1.20775 c -0.646835,1.69371 -2.780103,3.93279 -4.597061,4.82504 l -1.505519,0.73932 -23.944791,0.0628 -23.9447907,0.0628 z" id="SvgjsPath1017" sodipodi:nodetypes="ssssscccsscsssssssssccsscccssccsscsscccs"></path><path style="fill:#db996c;fill-opacity:1;stroke-width:1" d="m 54.347233,118.02224 c -1.786484,-0.29674 -4.329832,-1.49915 -5.75517,-2.72087 l -1.092834,-0.93671 -25.238982,-0.0726 -25.238981,-0.0726 -1.7662353,-0.86962 c -1.9535987,-0.96188 -3.4906044,-2.50437 -4.4811164,-4.4971 l -0.6202655,-1.24787 -0.069766,-37.159953 c -0.06067,-32.315192 -0.018282,-37.334243 0.3251249,-38.496872 0.4277658,-1.448235 1.9159627,-3.567333 3.1842241,-4.534137 l 0.7937499,-0.605079 v 36.693847 c 0,35.411119 0.017592,36.741234 0.5031984,38.049294 0.7158423,1.92824 2.0571678,3.65462 3.6651649,4.71735 2.6812979,1.77205 2.05861297,1.73242 27.216776,1.73242 21.293163,0 22.770543,-0.0297 24.24274,-0.48793 l 1.567734,-0.48794 0.944396,0.86549 c 2.107669,1.93153 5.797039,1.93676 8.024379,0.0113 l 1.03186,-0.89198 1.062292,0.42934 c 0.946741,0.38265 3.57681,0.43731 24.179497,0.50251 25.706241,0.0814 25.038001,0.12163 27.747761,-1.67192 1.7826,-1.17988 3.10428,-2.98136 3.77697,-5.14812 0.52609,-1.694528 0.53288,-2.252977 0.46267,-38.004809 l -0.0713,-36.285009 0.7143,0.508658 c 1.21322,0.863946 2.56096,2.629824 3.18619,4.174747 l 0.59743,1.476201 v 36.909462 36.90938 l -0.60954,1.50856 c -0.85433,2.11441 -2.61517,3.97588 -4.75974,5.03178 l -1.76292,0.868 -25.223295,0.0726 -25.223285,0.0726 -1.373108,1.09133 c -1.736865,1.38042 -3.674329,2.24641 -5.796197,2.59074 -1.882876,0.30557 -2.166918,0.30389 -4.14374,-0.0245 z" id="SvgjsPath1016"></path><path style="fill:#445056;stroke-width:1" d="m 54.159467,109.13905 c -0.727604,-0.34175 -1.558562,-0.88613 -1.846576,-1.20973 -0.521824,-0.5863 -0.521824,-0.58934 0,-0.86707 1.127347,-0.60002 3.494148,-3.30757 3.961857,-4.53224 l 0.479794,-1.25633 0.748673,1.55989 c 0.69676,1.45172 2.565727,3.52668 3.797435,4.21598 0.517645,0.28969 0.517627,0.29488 -0.0029,0.87977 -0.844176,0.94848 -3.009603,1.83111 -4.492409,1.83111 -0.836429,0 -1.809405,-0.22851 -2.645833,-0.62138 z" id="SvgjsPath1015"></path></g></g></svg><style>@media (prefers-color-scheme: light) { :root { filter: none; } }
@media (prefers-color-scheme: dark) { :root { filter: none; } }
</style></svg>